<?xml version="1.0" encoding="UTF-8"?>
<svg width="84px" height="111px" viewBox="0 0 84 111" version="1.1" xmlns="http://www.w3.org/2000/svg" xmlns:xlink="http://www.w3.org/1999/xlink">
    <!-- Generator: Sketch 51.2 (57519) - http://www.bohemiancoding.com/sketch -->
    <title>logo</title>
    <desc>Created with Sketch.</desc>
    <defs></defs>
    <g id="Page-1" stroke="none" stroke-width="1" fill="none" fill-rule="evenodd">
        <g id="HOME" transform="translate(-148.000000, -28.000000)" fill="#231F20">
            <path d="M222.855721,124.152163 C221.773488,123.991 220.829953,123.801512 220.025116,123.582721 C219.218326,123.36393 218.545349,123.087512 218.004233,122.753465 C217.463116,122.421372 217.054837,122.017 216.778419,121.545233 C216.502977,121.074442 216.364279,120.504023 216.364279,119.83593 L216.364279,119.62886 C216.364279,119.007651 216.502977,118.460674 216.778419,117.988907 C217.054837,117.51714 217.42893,117.120581 217.900698,116.798256 C218.372465,116.47593 218.907721,116.227837 219.506465,116.054953 C220.105209,115.88207 220.73814,115.796116 221.405256,115.796116 C222.165163,115.796116 222.889907,115.900628 223.580465,116.107698 C224.271023,116.314767 224.881488,116.613651 225.410884,117.005326 C225.940279,117.396023 226.360279,117.891233 226.670884,118.489 C226.981488,119.087744 227.136791,119.778302 227.136791,120.560674 L227.136791,121.805047 L230.037721,121.805047 L230.037721,120.353605 C230.037721,119.387605 229.847256,118.460674 229.468279,117.574767 C229.087349,116.687884 228.529628,115.917233 227.793163,115.26086 C227.056698,114.605465 226.153209,114.08193 225.082698,113.690256 C224.012186,113.299558 222.798093,113.103233 221.440419,113.103233 C220.266372,113.103233 219.19,113.258535 218.212279,113.56914 C217.232605,113.879744 216.393581,114.323186 215.691302,114.898488 C214.989023,115.474767 214.442047,116.153605 214.051349,116.935977 C213.659674,117.718349 213.464326,118.581791 213.464326,119.525326 L213.464326,119.940442 C213.464326,120.975791 213.647953,121.873419 214.017163,122.632349 C214.384419,123.393233 214.914791,124.043744 215.605349,124.582907 C216.295907,125.125 217.12907,125.561605 218.108744,125.895651 C219.086465,126.229698 220.185302,126.476814 221.405256,126.637977 C223.499395,126.937837 225.013349,127.421326 225.94614,128.088442 C226.877953,128.756535 227.34386,129.722535 227.34386,130.988395 L227.34386,131.195465 C227.34386,132.508209 226.889674,133.56114 225.980326,134.354256 C225.070977,135.149326 223.719163,135.545884 221.92293,135.545884 C219.851256,135.545884 218.234744,135.017465 217.072419,133.957698 C215.909116,132.899884 215.327953,131.310721 215.327953,129.19314 L215.327953,128.363884 L212.428,128.363884 L212.428,129.400209 C212.428,130.66607 212.636047,131.834256 213.049209,132.904767 C213.464326,133.975279 214.067953,134.90807 214.862047,135.701186 C215.65614,136.496256 216.646558,137.116488 217.831349,137.565791 C219.017116,138.014116 220.380651,138.239744 221.92293,138.239744 C223.281581,138.239744 224.47907,138.06686 225.514419,137.72207 C226.549767,137.376302 227.41907,136.892814 228.121349,136.270628 C228.822651,135.649419 229.352047,134.90807 229.709535,134.044628 C230.066047,133.181186 230.244791,132.230814 230.244791,131.195465 L230.244791,130.781326 C230.244791,128.939186 229.646047,127.472116 228.449535,126.37914 C227.252047,125.286163 225.387442,124.54286 222.855721,124.152163 Z M205.798837,120.353605 C205.798837,119.133651 205.402279,118.15007 204.608186,117.401884 C203.814093,116.653698 202.599023,116.279605 200.96493,116.279605 L195.579163,116.279605 L195.579163,125.11914 L200.96493,125.11914 C204.187209,125.11914 205.798837,123.738023 205.798837,120.975791 L205.798837,120.353605 Z M208.232884,117.644116 C208.544465,118.437233 208.699767,119.272349 208.699767,120.146535 L208.699767,121.18286 C208.699767,122.057047 208.544465,122.898023 208.232884,123.70286 C207.922279,124.508674 207.456372,125.216814 206.835163,125.827279 C206.212977,126.436767 205.442326,126.920256 204.521256,127.276767 C203.600186,127.633279 202.529674,127.812023 201.310698,127.812023 L195.579163,127.812023 L195.579163,137.756256 L192.678233,137.756256 L192.678233,113.586721 L201.310698,113.586721 C202.553116,113.586721 203.635349,113.765465 204.556419,114.121 C205.476512,114.479465 206.242279,114.956116 206.851767,115.55486 C207.461256,116.153605 207.922279,116.849047 208.232884,117.644116 Z M171.513163,116.279605 L177.728186,116.279605 L177.728186,135.062395 L171.513163,135.062395 L171.513163,137.756256 L186.843163,137.756256 L186.843163,135.062395 L180.629116,135.062395 L180.629116,116.279605 L186.843163,116.279605 L186.843163,113.586721 L171.513163,113.586721 L171.513163,116.279605 Z M149.554,116.279605 L156.597302,116.279605 L156.597302,137.756256 L159.497256,137.756256 L159.497256,116.279605 L166.541535,116.279605 L166.541535,113.586721 L149.554,113.586721 L149.554,116.279605 Z M219.989953,99.050814 L219.989953,107.544581 L222.889907,107.544581 L222.889907,99.050814 L223.511116,99.050814 L231.07307,83.3750465 L227.827349,83.3750465 L221.647488,96.565 L221.232372,96.565 L215.052512,83.3750465 L211.806791,83.3750465 L219.368744,99.050814 L219.989953,99.050814 Z M201.931907,83.3750465 L196.303907,83.3750465 L191.780605,93.5263488 L191.780605,93.7324419 L194.646372,93.7324419 L198.617814,84.6526279 L199.031953,84.6526279 L199.031953,104.850721 L192.194744,104.850721 L192.194744,107.544581 L208.769116,107.544581 L208.769116,104.850721 L201.931907,104.850721 L201.931907,83.3750465 Z M180.801023,83.3750465 L175.173023,83.3750465 L170.649721,93.5263488 L170.649721,93.7324419 L173.515488,93.7324419 L177.485953,84.6526279 L177.90107,84.6526279 L177.90107,104.850721 L171.064837,104.850721 L171.064837,107.544581 L187.637256,107.544581 L187.637256,104.850721 L180.801023,104.850721 L180.801023,83.3750465 Z M162.432372,98.8437442 L158.254837,84.6174651 L157.840698,84.6174651 L153.662186,98.8437442 L162.432372,98.8437442 Z M160.774837,83.3750465 L168.094558,107.544581 L164.987535,107.544581 L163.226465,101.536628 L152.868093,101.536628 L151.107023,107.544581 L148,107.544581 L155.319721,83.3750465 L160.774837,83.3750465 Z M217.217953,69.5306744 L231.061349,69.5306744 L231.061349,55.6872791 L217.217953,55.6872791 L217.217953,69.5306744 Z M217.217953,41.8438837 L231.061349,41.8438837 L231.061349,28.0004884 L217.217953,28.0004884 L217.217953,41.8438837 Z M203.374558,55.6872791 L217.217953,55.6872791 L217.217953,41.8438837 L203.374558,41.8438837 L203.374558,55.6872791 Z M203.374558,69.5316512 L189.531163,69.5316512 L148,69.5316512 L148,28.0004884 L189.531163,28.0004884 L203.374558,28.0004884 L203.374558,41.8438837 L189.531163,41.8438837 L189.531163,55.6872791 L203.374558,55.6872791 L203.374558,69.5316512 Z" id="logo"></path>
        </g>
    </g>
</svg>